{
  "accessors": [
    {
      "bufferView": 2,
      "componentType": 5126,
      "count": 30,
      "max": [
        1.0278019905090332,
        1.7979199886322021,
        1.967298984527588
      ],
      "min": [
        -1.0464400053024292,
        -0.709900975227356,
        -1.7041159868240356
      ],
      "type": "VEC3"
    },
    {
      "bufferView": 1,
      "componentType": 5126,
      "count": 30,
      "max": [
        0.0,
        0.0
      ],
      "min": [
        0.0,
        0.0
      ],
      "type": "VEC2"
    },
    {
      "bufferView": 0,
      "componentType": 5125,
      "count": 38,
      "type": "SCALAR"
    },
    {
      "bufferView": 2,
      "byteOffset": 360,
      "componentType": 5126,
      "count": 65532,
      "max": [
        1.5828030109405518,
        1.0354050397872925,
        1.9386810064315796
      ],
      "min": [
        -0.48773300647735596,
        -0.8086730241775513,
        -1.2913819551467896
      ],
      "type": "VEC3"
    },
    {
      "bufferView": 2,
      "byteOffset": 786744,
      "componentType": 5126,
      "count": 65532,
      "max": [
        0.9999955892562866,
        0.9679611325263977,
        0.9726175665855408
      ],
      "min": [
        -0.9921244978904724,
        -0.9999995827674866,
        -0.9998469352722168
      ],
      "type": "VEC3"
    },
    {
      "bufferView": 1,
      "byteOffset": 240,
      "componentType": 5126,
      "count": 65532,
      "max": [
        0.9684529900550842,
        0.9153469800949097
      ],
      "min": [
        0.00646300008520484,
        0.0034539999905973673
      ],
      "type": "VEC2"
    },
    {
      "bufferView": 0,
      "byteOffset": 152,
      "componentType": 5125,
      "count": 358422,
      "type": "SCALAR"
    },
    {
      "bufferView": 2,
      "byteOffset": 1573128,
      "componentType": 5126,
      "count": 65532,
      "max": [
        1.511752963066101,
        1.503559947013855,
        2.0307419300079346
      ],
      "min": [
        -0.9743729829788208,
        -0.8498079776763916,
        -1.5534509420394897
      ],
      "type": "VEC3"
    },
    {
      "bufferView": 2,
      "byteOffset": 2359512,
      "componentType": 5126,
      "count": 65532,
      "max": [
        0.9999841451644897,
        0.9999662041664124,
        0.9994234442710876
      ],
      "min": [
        -0.9986047148704529,
        -0.9999955892562866,
        -0.9993696808815002
      ],
      "type": "VEC3"
    },
    {
      "bufferView": 1,
      "byteOffset": 524496,
      "componentType": 5126,
      "count": 65532,
      "max": [
        0.9897699952125549,
        0.9994999766349792
      ],
      "min": [
        0.004246000200510025,
        0.003719999920576811
      ],
      "type": "VEC2"
    },
    {
      "bufferView": 0,
      "byteOffset": 1433840,
      "componentType": 5125,
      "count": 318693,
      "type": "SCALAR"
    },
    {
      "bufferView": 2,
      "byteOffset": 3145896,
      "componentType": 5126,
      "count": 65532,
      "max": [
        1.3182909488677979,
        1.5514529943466187,
        2.1172549724578857
      ],
      "min": [
        -1.0530840158462524,
        -0.8667479753494263,
        -1.7397480010986328
      ],
      "type": "VEC3"
    },
    {
      "bufferView": 2,
      "byteOffset": 3932280,
      "componentType": 5126,
      "count": 65532,
      "max": [
        0.9999956488609314,
        0.997813880443573,
        0.9998804926872253
      ],
      "min": [
        -0.9996961355209351,
        -0.9999996423721313,
        -0.9995695948600769
      ],
      "type": "VEC3"
    },
    {
      "bufferView": 1,
      "byteOffset": 1048752,
      "componentType": 5126,
      "count": 65532,
      "max": [
        0.9892590045928955,
        0.9995499849319458
      ],
      "min": [
        0.006401999853551388,
        0.006025000009685755
      ],
      "type": "VEC2"
    },
    {
      "bufferView": 0,
      "byteOffset": 2708612,
      "componentType": 5125,
      "count": 305535,
      "type": "SCALAR"
    },
    {
      "bufferView": 2,
      "byteOffset": 4718664,
      "componentType": 5126,
      "count": 65532,
      "max": [
        1.14274001121521,
        1.8070369958877563,
        2.063270092010498
      ],
      "min": [
        -1.0505510568618774,
        -0.8705340027809143,
        -1.7485170364379883
      ],
      "type": "VEC3"
    },
    {
      "bufferView": 2,
      "byteOffset": 5505048,
      "componentType": 5126,
      "count": 65532,
      "max": [
        0.9999999403953552,
        0.9999662041664124,
        0.9999391436576843
      ],
      "min": [
        -0.9994648098945618,
        -0.9999986290931702,
        -0.9999085664749146
      ],
      "type": "VEC3"
    },
    {
      "bufferView": 1,
      "byteOffset": 1573008,
      "componentType": 5126,
      "count": 65532,
      "max": [
        0.9920520186424255,
        1.0001410245895386
      ],
      "min": [
        0.007282999809831381,
        0.0038030000869184732
      ],
      "type": "VEC2"
    },
    {
      "bufferView": 0,
      "byteOffset": 3930752,
      "componentType": 5125,
      "count": 301185,
      "type": "SCALAR"
    },
    {
      "bufferView": 2,
      "byteOffset": 6291432,
      "componentType": 5126,
      "count": 33550,
      "max": [
        1.1628589630126953,
        1.6480770111083984,
        2.0959360599517822
      ],
      "min": [
        -1.0366400480270386,
        -0.8666179776191711,
        -1.7319250106811523
      ],
      "type": "VEC3"
    },
    {
      "bufferView": 2,
      "byteOffset": 6694032,
      "componentType": 5126,
      "count": 33550,
      "max": [
        0.9999961256980896,
        0.9977956414222717,
        0.9998742341995239
      ],
      "min": [
        -0.9994648098945618,
        -0.999994695186615,
        -0.9994711875915527
      ],
      "type": "VEC3"
    },
    {
      "bufferView": 1,
      "byteOffset": 2097264,
      "componentType": 5126,
      "count": 33550,
      "max": [
        0.9891819953918457,
        0.9992240071296692
      ],
      "min": [
        0.007693000137805939,
        0.011195999570190907
      ],
      "type": "VEC2"
    },
    {
      "bufferView": 0,
      "byteOffset": 5135492,
      "componentType": 5125,
      "count": 131106,
      "type": "SCALAR"
    }
  ],
  "asset": {
    "extras": {
      "author": "LOUIS (https://sketchfab.com/louis)",
      "license": "CC-BY-4.0 (http://creativecommons.org/licenses/by/4.0/)",
      "source": "https://sketchfab.com/3d-models/barack-obama-3010d6b0fdd843b397fa9e98437bc22a",
      "title": "BARACK OBAMA"
    },
    "generator": "Sketchfab-12.68.0",
    "version": "2.0"
  },
  "bufferViews": [
    {
      "buffer": 0,
      "byteLength": 5659916,
      "name": "floatBufferViews",
      "target": 34963
    },
    {
      "buffer": 0,
      "byteLength": 2365664,
      "byteOffset": 5659916,
      "byteStride": 8,
      "name": "floatBufferViews",
      "target": 34962
    },
    {
      "buffer": 0,
      "byteLength": 7096632,
      "byteOffset": 8025580,
      "byteStride": 12,
      "name": "floatBufferViews",
      "target": 34962
    }
  ],
  "buffers": [
    {
      "byteLength": 15122212,
      "uri": "scene.bin"
    }
  ],
  "extensionsUsed": [
    "KHR_materials_unlit"
  ],
  "images": [
    {
      "uri": "textures/mayakey_baseColor.jpeg"
    }
  ],
  "materials": [
    {
      "extensions": {
        "KHR_materials_unlit": {}
      },
      "name": "mayakey",
      "pbrMetallicRoughness": {
        "baseColorTexture": {
          "index": 0
        },
        "metallicFactor": 0.0
      }
    }
  ],
  "meshes": [
    {
      "name": "Object_0",
      "primitives": [
        {
          "attributes": {
            "POSITION": 0,
            "TEXCOORD_0": 1
          },
          "indices": 2,
          "material": 0,
          "mode": 1
        }
      ]
    },
    {
      "name": "Object_1",
      "primitives": [
        {
          "attributes": {
            "NORMAL": 4,
            "POSITION": 3,
            "TEXCOORD_0": 5
          },
          "indices": 6,
          "material": 0,
          "mode": 4
        }
      ]
    },
    {
      "name": "Object_2",
      "primitives": [
        {
          "attributes": {
            "NORMAL": 8,
            "POSITION": 7,
            "TEXCOORD_0": 9
          },
          "indices": 10,
          "material": 0,
          "mode": 4
        }
      ]
    },
    {
      "name": "Object_3",
      "primitives": [
        {
          "attributes": {
            "NORMAL": 12,
            "POSITION": 11,
            "TEXCOORD_0": 13
          },
          "indices": 14,
          "material": 0,
          "mode": 4
        }
      ]
    },
    {
      "name": "Object_4",
      "primitives": [
        {
          "attributes": {
            "NORMAL": 16,
            "POSITION": 15,
            "TEXCOORD_0": 17
          },
          "indices": 18,
          "material": 0,
          "mode": 4
        }
      ]
    },
    {
      "name": "Object_5",
      "primitives": [
        {
          "attributes": {
            "NORMAL": 20,
            "POSITION": 19,
            "TEXCOORD_0": 21
          },
          "indices": 22,
          "material": 0,
          "mode": 4
        }
      ]
    }
  ],
  "nodes": [
    {
      "children": [
        1
      ],
      "matrix": [
        0.9996811747550964,
        0.02524975687265396,
        5.606572289241543e-18,
        0.0,
        0.0,
        2.220446049250313e-16,
        -1.0,
        0.0,
        -0.02524975687265396,
        0.9996811747550964,
        2.2197381149948657e-16,
        0.0,
        0.004610483068972826,
        -0.005642071831971407,
        -1.2527916108887387e-18,
        1.0
      ],
      "name": "Sketchfab_model"
    },
    {
      "children": [
        2,
        3,
        4,
        5,
        6,
        7
      ],
      "name": "untitled.obj.cleaner"
    },
    {
      "mesh": 0,
      "name": "Object_2"
    },
    {
      "mesh": 1,
      "name": "Object_3"
    },
    {
      "mesh": 2,
      "name": "Object_4"
    },
    {
      "mesh": 3,
      "name": "Object_5"
    },
    {
      "mesh": 4,
      "name": "Object_6"
    },
    {
      "mesh": 5,
      "name": "Object_7"
    }
  ],
  "samplers": [
    {
      "magFilter": 9729,
      "minFilter": 9987,
      "wrapS": 10497,
      "wrapT": 10497
    }
  ],
  "scene": 0,
  "scenes": [
    {
      "name": "Sketchfab_Scene",
      "nodes": [
        0
      ]
    }
  ],
  "textures": [
    {
      "sampler": 0,
      "source": 0
    }
  ]
}
